<?xml version="1.0" standalone="no"?>
<!DOCTYPE svg PUBLIC "-//W3C//DTD SVG 20010904//EN"
 "http://www.w3.org/TR/2001/REC-SVG-20010904/DTD/svg10.dtd">
<svg version="1.0" xmlns="http://www.w3.org/2000/svg"
 width="300.000000pt" height="300.000000pt" viewBox="0 0 300.000000 300.000000"
 preserveAspectRatio="xMidYMid meet">
<metadata>
Created by potrace 1.11, written by Peter Selinger 2001-2013
</metadata>
<g transform="translate(0.000000,300.000000) scale(0.100000,-0.100000)"
fill="#000000" stroke="none">
<path d="M1609 2910 c-1 -11 -2 -23 -3 -27 -2 -5 -6 -35 -10 -68 -4 -33 -9
-69 -11 -80 -2 -11 -4 -27 -4 -35 -1 -11 -15 -16 -53 -18 -113 -5 -274 -45
-363 -90 -177 -89 -288 -216 -344 -392 -28 -88 -31 -110 -36 -221 -13 -283
131 -475 505 -672 l105 -56 -1 -43 c0 -24 -4 -65 -8 -93 -3 -27 -9 -70 -12
-95 -3 -25 -7 -58 -9 -75 -8 -60 -18 -150 -20 -167 -2 -28 -10 -30 -72 -18
-144 28 -327 105 -456 191 -33 22 -61 38 -63 36 -3 -2 -36 -135 -102 -409
l-29 -117 146 -51 c147 -52 335 -105 413 -115 24 -3 52 -8 63 -10 11 -2 24 -4
28 -4 8 -1 7 -26 -12 -181 -5 -36 -8 -66 -6 -67 1 -2 26 -5 56 -9 30 -3 83 -9
119 -14 115 -17 105 -24 120 96 16 142 22 159 49 160 223 12 404 70 531 173
63 50 72 60 114 114 110 147 161 396 116 573 -56 221 -199 366 -521 530 l-91
46 6 57 c7 63 12 105 26 206 5 39 12 99 15 135 9 91 10 92 47 86 110 -17 252
-65 371 -125 53 -26 97 -47 97 -45 0 1 27 109 60 240 33 130 59 238 57 240 -7
7 -110 49 -186 76 -106 37 -283 79 -370 88 -2 0 -1 26 3 58 3 31 8 82 12 114
6 63 8 62 -78 72 -116 14 -145 18 -170 22 -23 3 -28 0 -29 -16z m-104 -827
c-11 -120 -24 -205 -30 -212 -7 -6 -33 27 -45 57 -22 52 -4 131 42 186 16 20
32 36 35 36 3 0 2 -30 -2 -67z m215 -1062 c33 -66 11 -158 -50 -201 -36 -26
-35 -28 -19 100 9 75 15 124 18 154 2 15 32 -17 51 -53z"/>
</g>
</svg>
